<mxfile host="app.diagrams.net" agent="Mozilla/5.0 (Windows NT 10.0; Win64; x64) AppleWebKit/537.36 (KHTML, like Gecko) Chrome/140.0.0.0 Safari/537.36" version="28.2.0">
  <diagram name="ページ1" id="VaBDuXFIlfoPfYSvBV-1">
    <mxGraphModel dx="873" dy="501" grid="1" gridSize="10" guides="1" tooltips="1" connect="1" arrows="1" fold="1" page="1" pageScale="1" pageWidth="1000" pageHeight="1500" math="0" shadow="0">
      <root>
        <mxCell id="0" />
        <mxCell id="1" parent="0" />
        <mxCell id="3B-Z6e89-FGcA48uaAxL-1" value="利用者" style="html=1;whiteSpace=wrap;" vertex="1" parent="1">
          <mxGeometry x="250" y="760" width="110" height="50" as="geometry" />
        </mxCell>
        <mxCell id="3B-Z6e89-FGcA48uaAxL-2" value="図書カード" style="html=1;whiteSpace=wrap;" vertex="1" parent="1">
          <mxGeometry x="150" y="890" width="110" height="50" as="geometry" />
        </mxCell>
        <mxCell id="3B-Z6e89-FGcA48uaAxL-3" value="" style="endArrow=diamondThin;endFill=0;endSize=24;html=1;rounded=0;" edge="1" parent="1" source="3B-Z6e89-FGcA48uaAxL-2" target="3B-Z6e89-FGcA48uaAxL-1">
          <mxGeometry width="160" relative="1" as="geometry">
            <mxPoint x="470" y="930" as="sourcePoint" />
            <mxPoint x="630" y="930" as="targetPoint" />
          </mxGeometry>
        </mxCell>
        <mxCell id="3B-Z6e89-FGcA48uaAxL-19" value="IDナンバー" style="html=1;whiteSpace=wrap;" vertex="1" parent="1">
          <mxGeometry x="70" y="990" width="110" height="50" as="geometry" />
        </mxCell>
        <mxCell id="3B-Z6e89-FGcA48uaAxL-20" value="パスワード" style="html=1;whiteSpace=wrap;" vertex="1" parent="1">
          <mxGeometry x="190" y="990" width="110" height="50" as="geometry" />
        </mxCell>
        <mxCell id="3B-Z6e89-FGcA48uaAxL-21" value="" style="endArrow=diamondThin;endFill=0;endSize=24;html=1;rounded=0;" edge="1" parent="1" source="3B-Z6e89-FGcA48uaAxL-19" target="3B-Z6e89-FGcA48uaAxL-2">
          <mxGeometry width="160" relative="1" as="geometry">
            <mxPoint x="280" y="870" as="sourcePoint" />
            <mxPoint x="440" y="870" as="targetPoint" />
          </mxGeometry>
        </mxCell>
        <mxCell id="3B-Z6e89-FGcA48uaAxL-22" value="" style="endArrow=diamondThin;endFill=0;endSize=24;html=1;rounded=0;" edge="1" parent="1" source="3B-Z6e89-FGcA48uaAxL-20" target="3B-Z6e89-FGcA48uaAxL-2">
          <mxGeometry width="160" relative="1" as="geometry">
            <mxPoint x="280" y="1010" as="sourcePoint" />
            <mxPoint x="320" y="950" as="targetPoint" />
          </mxGeometry>
        </mxCell>
      </root>
    </mxGraphModel>
  </diagram>
</mxfile>
